<svg width="512" height="512" xmlns="http://www.w3.org/2000/svg" fill="none">
 <g>
  <title>Layer 1</title>
  <g id="SVGRepo_bgCarrier" stroke-width="0"/>
  <g id="SVGRepo_tracerCarrier" stroke-linecap="round" stroke-linejoin="round"/>
  <g id="SVGRepo_iconCarrier">
   <path fill-rule="evenodd" clip-rule="evenodd" d="m422.4,107.2c-16.8,-29.4 -55.2,-38.4 -83.2,-19.6l-18.6,12.4c-44.6,29.7 -97.1,45.6 -150.7,45.6l-37.2,0c-46.3,0 -83.8,37.5 -83.8,83.8c0,44.3 34.4,80.6 78,83.6l-7.1,28.5c-6.6,26.2 4.1,53.8 26.6,68.8c30.4,20.3 71.6,11 90.4,-20.3l34.3,-57.2c17.2,6.9 33.7,15.6 49.3,26l18.6,12.4c28.2,18.8 66.4,9.8 83.2,-19.6c43.2,-75.6 43.2,-168.6 0,-244.2l0.2,-0.2zm-192.4,212.6c-19.6,-4.4 -39.7,-6.7 -60,-6.7l-9.6,38.5c-2.3,9.1 1.4,18.6 9.2,23.8c10.5,7 24.8,3.8 31.3,-7l29.1,-48.5l0,-0.1z" fill="#000000" id="svg_1"/>
  </g>
 </g>

</svg>