<svg width="512" height="512" xmlns="http://www.w3.org/2000/svg" fill="none">

 <g>
  <title>Layer 1</title>
  <g stroke-width="0" id="SVGRepo_bgCarrier"/>
  <g stroke-linejoin="round" stroke-linecap="round" id="SVGRepo_tracerCarrier"/>
  <g stroke="null" id="SVGRepo_iconCarrier">
   <path stroke="null" id="svg_1" fill="#000000" d="m471.50204,44.81383c-21.2048,-43.72263 -69.40378,-57.12991 -104.96442,-29.19668l-23.501,18.46046c-56.1947,44.14358 -122.22157,67.69987 -189.76117,67.69987l-46.96104,0c-58.37305,0 -105.69371,55.75811 -105.69371,124.53992c0,65.86884 43.39889,119.79435 98.34219,124.24352l-8.99189,42.38072c-8.2774,39.01194 5.15283,79.94489 33.54956,102.25299c38.3647,30.1354 90.32135,16.36758 114.04431,-30.21946l43.30007,-85.03543c21.68835,10.27138 42.53115,23.1861 62.17168,38.61652l23.501,18.45984c35.56065,27.93416 83.75962,14.5244 104.96442,-29.19513c54.5406,-112.46833 54.5406,-250.53882 0,-363.00715zm-242.54329,316.03093c-24.6771,-6.59747 -50.02272,-9.97871 -75.58554,-9.98805l-12.13337,57.18533c-2.8606,13.48449 1.78094,27.62904 11.59486,35.34114c13.25875,10.4146 31.21479,5.6572 39.41345,-10.44573l36.7106,-72.09269zm166.89301,-293.41615c10.08318,-7.92101 23.75202,-4.11914 29.76599,8.27968c45.25805,93.32446 45.25805,207.89096 0,301.2176c-6.01397,12.39789 -19.68281,16.19945 -29.76599,8.27875l-23.501,-18.45984c-64.8748,-50.9646 -141.10375,-78.15775 -219.07532,-78.15775l-46.96104,0c-29.18653,0 -52.84686,-27.88124 -52.84686,-62.26965c0,-34.39122 23.66033,-62.27027 52.84686,-62.27027l46.96104,0c77.97157,0 154.20052,-27.19502 219.07532,-78.15806l23.501,-18.46046z" clip-rule="evenodd" fill-rule="evenodd"/>
  </g>
 </g>
</svg>